<svg width="900" height="882" viewBox="0 0 900 882" fill="none" xmlns="http://www.w3.org/2000/svg">
<path d="M0 52.003C0 23.2842 23.281 0 51.9998 0C314.842 0 578.095 0 847.996 0C876.715 0 900 23.2811 900 51.9999C900 308.572 900 565.553 900 828.997C900 857.716 876.719 881 848 881C585.158 881 321.905 881 52.0037 881C23.2849 881 0 857.719 0 829C0 572.428 0 315.447 0 52.003Z" fill="#EFF1ED"/>
<path d="M460.12 222.467C464.018 224.984 467.119 228.373 470.327 231.694C472.218 233.621 474.132 235.402 476.182 237.155C480.159 240.569 483.983 244.134 487.807 247.717C499.513 258.713 499.513 258.713 511.495 269.405C516.735 273.95 521.789 278.698 526.877 283.412C535.598 291.506 535.598 291.506 544.495 299.405C548.678 303.029 552.722 306.801 556.78 310.565C559.671 313.241 562.576 315.89 565.557 318.467C570.786 322.993 575.822 327.73 580.895 332.429C583.953 335.258 587.026 338.07 590.098 340.883C592.633 343.204 595.166 345.526 597.694 347.854C602.045 351.857 606.394 355.853 610.87 359.717C622.302 369.643 622.302 369.643 622.796 374.139C622.962 379.934 622.679 383.52 618.557 387.967C612.958 391.474 608.122 391.385 601.747 391.319C601.023 391.334 600.299 391.35 599.553 391.366C598.906 391.362 598.258 391.359 597.59 391.355C594.221 392.369 592.751 394.261 590.557 396.967C590.017 399.953 589.783 402.388 589.768 405.378C589.744 406.213 589.721 407.048 589.697 407.908C589.629 410.662 589.6 413.415 589.577 416.17C589.551 418.092 589.524 420.014 589.498 421.936C589.45 425.964 589.424 429.992 589.411 434.02C589.389 439.168 589.28 444.311 589.148 449.457C589.063 453.427 589.04 457.397 589.034 461.368C589.021 463.264 588.985 465.161 588.924 467.056C588.283 476.884 588.283 476.884 591.919 485.607C594.722 487.994 597.71 489.678 601.024 491.253C616.585 498.803 626.874 515.506 632.479 531.182C634.963 539.903 635.873 548.371 635.893 557.416C635.9 558.473 635.907 559.529 635.913 560.617C635.923 562.838 635.928 565.059 635.928 567.28C635.932 570.629 635.969 573.976 636.007 577.325C636.088 592.528 635.161 606.665 627.807 620.342C627.294 621.33 627.294 621.33 626.77 622.338C623.678 628.104 619.969 633.132 615.557 637.967C615.04 638.576 614.523 639.184 613.991 639.811C601.827 653.224 581.329 662.307 563.415 663.258C558.727 663.414 554.04 663.412 549.35 663.401C547.614 663.405 545.877 663.411 544.14 663.417C540.519 663.425 536.897 663.423 533.276 663.413C528.68 663.402 524.085 663.422 519.49 663.451C515.908 663.47 512.326 663.469 508.744 663.463C507.052 663.463 505.359 663.469 503.667 663.482C488.831 663.576 475.266 661.48 461.807 654.78C461.011 654.392 460.214 654.004 459.394 653.604C452.464 650.122 446.468 646.011 440.557 640.967C439.237 639.853 439.237 639.853 437.889 638.717C424.491 627.042 415.209 613.478 408.557 596.967C408.142 595.937 407.727 594.907 407.3 593.846C404.704 586.286 404.18 579.23 404.12 571.28C404.11 570.33 404.1 569.38 404.089 568.401C404.174 561.452 404.397 552.127 409.557 546.967C413.721 546.155 416.263 547.115 419.745 549.28C428.457 555.517 435.47 563.632 442.12 571.955C466.263 602.451 466.263 602.451 501.557 615.967C506.456 616.351 511.321 616.412 516.233 616.401C517.578 616.405 518.922 616.411 520.267 616.417C523.054 616.425 525.841 616.423 528.629 616.413C532.174 616.402 535.717 616.422 539.262 616.451C542.027 616.47 544.792 616.469 547.557 616.463C549.49 616.463 551.423 616.48 553.356 616.497C563.941 616.414 572.097 614.184 579.87 606.819C586.671 599.357 587.865 590.344 587.928 580.639C587.937 579.769 587.946 578.898 587.956 578.002C587.97 576.17 587.979 574.338 587.983 572.506C587.995 569.738 588.044 566.973 588.094 564.205C588.193 553.518 588.079 543.235 580.611 534.758C573.33 527.772 565.334 524.762 555.333 524.952C554.098 524.971 552.863 524.99 551.591 525.009C550.936 525.02 550.281 525.031 549.606 525.043C545.377 525.104 541.148 525.104 536.919 525.116C533.212 525.129 529.508 525.164 525.803 525.245C522.204 525.322 518.609 525.34 515.009 525.319C513.645 525.321 512.281 525.345 510.918 525.391C506.543 525.53 502.706 525.414 498.557 523.967C495.846 521.185 494.081 518.477 492.241 515.063C487.433 506.221 478.891 498.523 470.557 492.967C470.557 490.717 470.557 490.717 471.557 487.967C481.982 480.467 495.954 480.87 508.221 480.686C510.186 480.648 512.151 480.61 514.116 480.573C517.173 480.519 520.23 480.466 523.287 480.415C526.265 480.363 529.243 480.306 532.221 480.248C533.144 480.235 534.067 480.221 535.018 480.207C539.114 480.538 539.114 480.538 542.557 478.967C542.666 477.605 542.706 476.237 542.718 474.87C542.728 473.987 542.738 473.103 542.748 472.194C542.757 470.729 542.757 470.729 542.766 469.234C542.776 468.211 542.786 467.189 542.796 466.135C542.826 462.733 542.847 459.33 542.866 455.928C542.876 454.188 542.876 454.188 542.886 452.413C542.918 446.272 542.943 440.13 542.962 433.988C542.98 428.901 543.015 423.815 543.065 418.728C543.125 412.593 543.156 406.459 543.166 400.324C543.174 397.985 543.193 395.646 543.222 393.307C543.261 390.03 543.262 386.754 543.254 383.476C543.274 382.512 543.294 381.547 543.315 380.554C543.252 374.745 542.29 371.606 538.181 367.428C537.377 366.705 537.377 366.705 536.557 365.967C535.967 365.435 535.376 364.903 534.768 364.355C533.547 363.281 532.315 362.22 531.077 361.166C527.747 358.26 524.531 355.24 521.307 352.217C512.33 343.808 503.274 335.495 494.12 327.28C490.734 324.224 487.377 321.139 484.018 318.053C480.083 314.441 476.116 310.865 472.139 307.299C470.232 305.576 468.334 303.846 466.444 302.104C465.912 301.614 465.381 301.124 464.833 300.619C463.327 299.23 461.823 297.839 460.319 296.448C455.738 292.045 455.738 292.045 450.182 289.28C446.555 290.229 444.94 292.282 442.425 294.987C440.654 296.864 438.828 298.539 436.87 300.217C433.461 303.159 430.122 306.17 426.807 309.217C426.299 309.685 425.79 310.152 425.266 310.634C424.221 311.595 423.175 312.557 422.131 313.519C419.567 315.879 417 318.236 414.432 320.592C413.932 321.051 413.431 321.511 412.915 321.984C409.833 324.809 406.733 327.613 403.62 330.405C399.734 333.892 395.889 337.42 392.057 340.967C385.752 346.803 379.381 352.563 372.964 358.276C363.058 365.727 363.058 365.727 357.431 375.85C357.431 377.007 357.431 377.007 357.43 378.187C357.428 379.072 357.425 379.957 357.422 380.868C357.424 381.841 357.426 382.814 357.428 383.817C357.426 384.84 357.424 385.863 357.423 386.916C357.418 390.31 357.421 393.703 357.425 397.096C357.424 399.445 357.423 401.794 357.422 404.143C357.42 409.07 357.422 413.997 357.427 418.924C357.433 425.255 357.429 431.586 357.423 437.918C357.42 442.769 357.421 447.62 357.424 452.471C357.424 454.806 357.423 457.142 357.421 459.477C357.418 462.734 357.422 465.99 357.428 469.247C357.425 470.709 357.425 470.709 357.422 472.201C357.426 473.524 357.426 473.524 357.43 474.874C357.431 475.645 357.431 476.416 357.431 477.21C357.367 478.995 357.367 478.995 358.557 479.967C360.088 480.069 361.624 480.103 363.159 480.109C364.142 480.116 365.124 480.123 366.137 480.13C367.213 480.134 368.289 480.139 369.397 480.143C371.682 480.166 373.966 480.19 376.251 480.215C379.846 480.25 383.442 480.279 387.038 480.293C420.805 480.446 447.801 488.798 472.154 513.125C486.382 527.958 495.357 548.569 495.995 569.155C495.693 576.591 495.144 586.238 490.823 592.467C488.557 593.967 488.557 593.967 485.604 593.959C473.514 590.022 463.496 574.215 455.78 564.662C452.849 561.109 449.774 557.702 446.671 554.299C444.784 552.217 442.947 550.102 441.12 547.967C429.622 534.846 420.104 527.189 402.557 524.967C400.358 524.867 398.156 524.81 395.955 524.79C394.686 524.777 393.417 524.764 392.11 524.751C390.743 524.743 389.375 524.736 388.007 524.729C386.959 524.723 386.959 524.723 385.891 524.716C382.196 524.696 378.502 524.681 374.808 524.672C371.018 524.661 367.23 524.626 363.441 524.587C360.502 524.56 357.564 524.552 354.625 524.549C353.23 524.544 351.834 524.532 350.438 524.514C338.867 524.368 329.899 525.94 321.311 534.041C314.42 541.607 312.248 549.336 312.221 559.389C312.215 560.289 312.208 561.189 312.201 562.116C312.191 564.016 312.186 565.915 312.187 567.815C312.182 570.694 312.146 573.572 312.108 576.451C312.037 587.837 312.174 597.804 320.12 606.78C320.699 607.467 321.277 608.154 321.874 608.862C330.608 615.714 339.24 616.672 350.053 616.534C351.418 616.536 352.783 616.542 354.148 616.551C358.43 616.571 362.712 616.552 366.995 616.53C371.987 616.508 376.979 616.504 381.971 616.53C383.958 616.533 385.946 616.512 387.933 616.49C389.742 616.495 389.742 616.495 391.586 616.501C392.646 616.494 393.705 616.488 394.797 616.482C398.268 617.092 399.361 618.271 401.557 620.967C402.943 622.967 404.294 624.99 405.62 627.03C412.031 636.568 420.025 644.494 429.557 650.967C429.557 653.217 429.557 653.217 428.557 655.967C417.126 663.301 403.949 663.432 390.815 663.401C389.117 663.405 387.419 663.411 385.721 663.417C382.179 663.425 378.638 663.423 375.096 663.413C370.595 663.402 366.096 663.422 361.595 663.451C358.093 663.47 354.591 663.469 351.089 663.463C349.431 663.463 347.774 663.469 346.116 663.482C332.252 663.572 320.044 661.426 307.557 654.967C306.647 654.509 305.737 654.052 304.8 653.58C286.079 643.487 272.834 627.012 266.448 606.803C263.495 596.289 263.996 585.36 264.091 574.533C264.12 570.909 264.111 567.285 264.098 563.66C264.11 548.921 264.165 534.868 271.37 521.592C271.725 520.916 272.081 520.239 272.447 519.542C279.959 505.528 292.184 492.008 307.172 485.902C309.954 484.08 309.954 484.08 310.186 480.292C310.212 478.732 310.211 477.172 310.188 475.612C310.196 474.76 310.203 473.907 310.21 473.029C310.227 470.207 310.208 467.387 310.186 464.565C310.187 462.606 310.19 460.647 310.194 458.687C310.196 454.579 310.182 450.471 310.154 446.363C310.12 441.095 310.126 435.829 310.145 430.562C310.155 426.515 310.147 422.468 310.132 418.422C310.126 416.48 310.127 414.538 310.133 412.596C310.139 409.88 310.118 407.167 310.091 404.452C310.097 403.648 310.104 402.844 310.111 402.016C310.049 398.416 309.866 396.373 307.654 393.467C305.279 391.768 304.145 391.481 301.257 391.498C300.444 391.484 299.631 391.47 298.794 391.455C297.106 391.463 295.419 391.471 293.731 391.479C287.826 391.376 284.411 390.402 279.557 386.967C277.004 383.536 276.302 380.787 276.432 376.592C277.781 368.101 285.731 362.754 291.827 357.377C294.728 354.817 297.585 352.211 300.432 349.592C301.448 348.66 302.464 347.728 303.479 346.795C304.505 345.853 305.531 344.91 306.557 343.967C317.834 333.605 317.834 333.605 323.495 328.53C328.46 324.073 333.359 319.548 338.257 315.018C345.791 308.05 353.366 301.128 361.003 294.272C365.883 289.869 370.717 285.415 375.557 280.967C386.834 270.605 386.834 270.605 392.495 265.53C396.381 262.043 400.226 258.514 404.057 254.967C408.679 250.689 413.332 246.451 418.026 242.252C419.873 240.585 421.705 238.908 423.526 237.213C445.855 216.461 445.855 216.461 460.12 222.467Z" fill="#1B4332"/>
<path d="M428.629 381.465C429.637 381.456 430.645 381.447 431.683 381.437C432.766 381.448 433.848 381.459 434.963 381.471C436.08 381.47 437.197 381.468 438.348 381.467C440.708 381.468 443.068 381.48 445.429 381.501C449.043 381.53 452.657 381.521 456.272 381.508C458.565 381.514 460.858 381.523 463.151 381.534C464.774 381.529 464.774 381.529 466.431 381.525C467.942 381.544 467.942 381.544 469.485 381.563C470.812 381.571 470.812 381.571 472.167 381.579C475.145 382.063 476.484 382.772 478.557 384.967C479.058 387.44 479.058 387.44 479.059 390.417C479.068 391.531 479.077 392.646 479.087 393.794C479.076 394.997 479.065 396.2 479.053 397.44C479.055 398.674 479.056 399.908 479.057 401.179C479.055 404.458 479.034 407.737 479.007 411.016C478.994 413.029 478.996 415.042 479.003 417.055C479.016 420.913 479.007 424.77 478.991 428.627C478.994 429.833 478.996 431.038 478.999 432.279C478.98 433.946 478.98 433.946 478.961 435.647C478.956 436.628 478.95 437.61 478.945 438.621C478.817 439.395 478.689 440.169 478.557 440.967C475.256 443.168 474.238 443.223 470.399 443.242C469.348 443.251 468.296 443.261 467.213 443.271C466.079 443.27 464.945 443.269 463.776 443.268C462.611 443.272 461.446 443.276 460.245 443.281C457.781 443.287 455.316 443.287 452.851 443.283C449.072 443.28 445.293 443.303 441.514 443.328C439.122 443.331 436.73 443.331 434.338 443.33C432.637 443.344 432.637 443.344 430.901 443.358C429.849 443.352 428.798 443.346 427.715 443.339C426.326 443.34 426.326 443.34 424.91 443.341C422.557 442.967 422.557 442.967 420.76 441.771C419.132 439.33 419.17 437.659 419.153 434.733C419.14 433.665 419.128 432.597 419.115 431.497C419.117 430.344 419.12 429.19 419.123 428.002C419.118 426.817 419.113 425.633 419.108 424.412C419.101 421.904 419.102 419.397 419.111 416.889C419.119 413.048 419.091 409.209 419.059 405.368C419.057 402.933 419.058 400.499 419.061 398.065C419.05 396.914 419.038 395.763 419.027 394.577C419.036 393.505 419.046 392.434 419.055 391.331C419.055 390.389 419.056 389.448 419.056 388.478C420.129 383.102 423.471 381.466 428.629 381.465Z" fill="#1B4332"/>
<path d="M440.557 439.967C442.269 440.064 443.977 440.224 445.682 440.405C455.952 441.302 466.257 441.053 476.557 440.967C476.227 441.627 475.897 442.287 475.557 442.967C458.397 442.967 441.237 442.967 423.557 442.967C423.557 442.307 423.557 441.647 423.557 440.967C424.701 440.979 425.844 440.99 427.022 441.002C428.513 441.012 430.004 441.021 431.495 441.03C432.249 441.038 433.004 441.047 433.782 441.055C435.707 441.064 437.632 441.02 439.557 440.967C439.887 440.637 440.217 440.307 440.557 439.967Z" fill="#1B4332"/>
<path d="M476.557 389.967C476.887 389.967 477.217 389.967 477.557 389.967C477.887 406.797 478.217 423.627 478.557 440.967C477.567 441.462 477.567 441.462 476.557 441.967C475.567 441.637 474.577 441.307 473.557 440.967C474.557 438.967 474.557 438.967 475.557 437.967C475.68 436.464 475.735 434.955 475.762 433.448C475.782 432.487 475.802 431.526 475.823 430.536C475.84 429.491 475.856 428.446 475.874 427.37C475.894 426.306 475.915 425.242 475.937 424.145C476.002 420.732 476.061 417.318 476.12 413.905C476.163 411.597 476.206 409.289 476.25 406.981C476.358 401.31 476.46 395.639 476.557 389.967Z" fill="#1B4332"/>
<path d="M496.495 482.342C497.369 482.399 498.244 482.456 499.145 482.514C501.283 482.655 503.42 482.81 505.557 482.967C505.557 483.297 505.557 483.627 505.557 483.967C503.247 483.967 500.937 483.967 498.557 483.967C498.227 484.627 497.897 485.287 497.557 485.967C496.567 485.637 495.577 485.307 494.557 484.967C492.72 485.078 490.885 485.251 489.057 485.467C485.646 485.871 483.852 486.066 480.557 484.967C480.557 485.627 480.557 486.287 480.557 486.967C479.897 486.637 479.237 486.307 478.557 485.967C479.557 483.967 479.557 483.967 482.499 482.819C487.188 481.594 491.706 481.978 496.495 482.342Z" fill="#1B4332"/>
<path d="M396.557 261.967C397.547 262.297 398.537 262.627 399.557 262.967C398.567 265.277 397.577 267.587 396.557 269.967C395.959 269.761 395.361 269.555 394.745 269.342C392.273 268.661 392.273 268.661 389.557 270.967C391.112 267.15 393.593 264.775 396.557 261.967Z" fill="#1B4332"/>
<path d="M291.557 642.967C294.669 644.466 297.611 646.167 300.557 647.967C300.887 647.307 301.217 646.647 301.557 645.967C302.217 646.627 302.877 647.287 303.557 647.967C303.227 648.627 302.897 649.287 302.557 649.967C303.877 650.627 305.197 651.287 306.557 651.967C306.227 652.627 305.897 653.287 305.557 653.967C303.781 652.893 302.011 651.808 300.245 650.717C299.258 650.114 298.272 649.511 297.256 648.889C294.728 647.089 293.231 645.549 291.557 642.967Z" fill="#1B4332"/>
<path d="M582.557 336.967C584.233 337.253 585.901 337.585 587.557 337.967C587.557 338.957 587.557 339.947 587.557 340.967C584.224 343.967 584.224 343.967 581.557 343.967C581.515 341.968 581.516 339.967 581.557 337.967C581.887 337.637 582.217 337.307 582.557 336.967Z" fill="#1B4332"/>
<path d="M327.557 656.967C328.547 657.627 329.537 658.287 330.557 658.967C332.547 659.357 334.547 659.699 336.557 659.967C335.567 661.452 335.567 661.452 334.557 662.967C333.299 662.844 332.041 662.72 330.745 662.592C329.683 662.488 329.683 662.488 328.6 662.381C326.557 661.967 326.557 661.967 323.557 659.967C324.877 658.977 326.197 657.987 327.557 656.967Z" fill="#1B4332"/>
<path d="M412.557 637.967C416.387 639.42 417.678 641.396 419.557 644.967C418.567 645.627 417.577 646.287 416.557 646.967C414.557 645.967 414.557 645.967 413.924 644.12C413.762 643.389 413.599 642.658 413.432 641.905C413.265 641.171 413.097 640.438 412.924 639.682C412.803 639.116 412.682 638.55 412.557 637.967Z" fill="#1B4332"/>
<path d="M421.557 551.967C425.85 553.618 428.437 556.705 431.557 559.967C431.227 560.627 430.897 561.287 430.557 561.967C428.12 561.592 428.12 561.592 425.557 560.967C425.227 560.307 424.897 559.647 424.557 558.967C425.217 558.967 425.877 558.967 426.557 558.967C424.907 556.657 423.257 554.347 421.557 551.967Z" fill="#1B4332"/>
<path d="M408.557 519.967C409.217 519.967 409.877 519.967 410.557 519.967C410.557 520.957 410.557 521.947 410.557 522.967C411.217 523.297 411.877 523.627 412.557 523.967C409.257 524.297 405.957 524.627 402.557 524.967C402.557 523.977 402.557 522.987 402.557 521.967C406.307 520.842 406.307 520.842 408.557 521.967C408.557 521.307 408.557 520.647 408.557 519.967Z" fill="#1B4332"/>
<path d="M405.557 554.967C407.537 555.462 407.537 555.462 409.557 555.967C409.108 557.616 408.648 559.261 408.182 560.905C407.927 561.821 407.672 562.738 407.409 563.682C406.557 565.967 406.557 565.967 404.557 566.967C404.476 562.806 404.575 559.02 405.557 554.967Z" fill="#1B4332"/>
<path d="M407.557 318.967C408.877 319.297 410.197 319.627 411.557 319.967C410.307 323.62 409.886 324.748 406.557 326.967C405.897 325.977 405.237 324.987 404.557 323.967C405.547 322.317 406.537 320.667 407.557 318.967Z" fill="#1B4332"/>
<path d="M411.557 247.967C412.217 247.967 412.877 247.967 413.557 247.967C413.557 248.627 413.557 249.287 413.557 249.967C414.217 250.627 414.877 251.287 415.557 251.967C413.907 253.287 412.257 254.607 410.557 255.967C410.557 255.307 410.557 254.647 410.557 253.967C409.897 253.637 409.237 253.307 408.557 252.967C410.432 249.092 410.432 249.092 411.557 247.967Z" fill="#1B4332"/>
<path d="M451.182 220.405C452.408 220.558 452.408 220.558 453.659 220.714C454.598 220.839 454.598 220.839 455.557 220.967C451.913 223.397 449.845 223.129 445.557 222.967C445.227 222.307 444.897 221.647 444.557 220.967C447.078 219.707 448.411 220.049 451.182 220.405Z" fill="#1B4332"/>
<path d="M474.557 485.967C475.217 486.297 475.877 486.627 476.557 486.967C475.567 488.947 474.577 490.927 473.557 492.967C472.567 492.967 471.577 492.967 470.557 492.967C470.87 490.592 470.87 490.592 471.557 487.967C472.547 487.307 473.537 486.647 474.557 485.967Z" fill="#1B4332"/>
<path d="M461.557 560.967C462.217 561.297 462.877 561.627 463.557 561.967C463.557 563.617 463.557 565.267 463.557 566.967C460.557 567.967 460.557 567.967 458.37 567.03C457.772 566.679 457.173 566.329 456.557 565.967C456.557 565.307 456.557 564.647 456.557 563.967C458.207 563.967 459.857 563.967 461.557 563.967C461.557 562.977 461.557 561.987 461.557 560.967Z" fill="#1B4332"/>
<path d="M482.557 496.967C483.217 496.967 483.877 496.967 484.557 496.967C484.557 497.627 484.557 498.287 484.557 498.967C485.217 499.297 485.877 499.627 486.557 499.967C486.227 501.617 485.897 503.267 485.557 504.967C484.567 504.307 483.577 503.647 482.557 502.967C482.37 499.842 482.37 499.842 482.557 496.967Z" fill="#1B4332"/>
<path d="M487.557 609.967C487.887 610.627 488.217 611.287 488.557 611.967C489.547 612.297 490.537 612.627 491.557 612.967C491.557 613.627 491.557 614.287 491.557 614.967C488.257 613.977 484.957 612.987 481.557 611.967C484.557 609.967 484.557 609.967 487.557 609.967Z" fill="#1B4332"/>
<path d="M540.557 296.967C541.877 297.627 543.197 298.287 544.557 298.967C544.557 299.957 544.557 300.947 544.557 301.967C542.907 302.297 541.257 302.627 539.557 302.967C539.887 300.987 540.217 299.007 540.557 296.967Z" fill="#1B4332"/>
<path d="M488.557 587.967C489.877 588.627 491.197 589.287 492.557 589.967C491.567 590.957 490.577 591.947 489.557 592.967C488.237 592.307 486.917 591.647 485.557 590.967C486.547 589.977 487.537 588.987 488.557 587.967Z" fill="#1B4332"/>
<path d="M451.557 497.967C455.353 498.51 457.029 500.169 459.557 502.967C456.917 502.637 454.277 502.307 451.557 501.967C451.557 500.647 451.557 499.327 451.557 497.967Z" fill="#1B4332"/>
<path d="M316.557 603.967C317.706 604.922 318.851 605.881 319.995 606.842C320.633 607.376 321.271 607.91 321.928 608.459C323.557 609.967 323.557 609.967 324.557 611.967C322.245 611.78 322.245 611.78 319.557 610.967C316.557 606.933 316.557 606.933 316.557 603.967Z" fill="#1B4332"/>
<path d="M315.62 655.28C316.259 655.836 316.898 656.393 317.557 656.967C318.547 657.627 319.537 658.287 320.557 658.967C316 658.529 312.981 658.117 309.557 654.967C312.263 653.904 313.101 653.677 315.62 655.28Z" fill="#1B4332"/>
<path d="M414.557 521.967C415.217 521.967 415.877 521.967 416.557 521.967C416.887 522.957 417.217 523.947 417.557 524.967C416.897 524.967 416.237 524.967 415.557 524.967C415.557 525.627 415.557 526.287 415.557 526.967C412.587 526.472 412.587 526.472 409.557 525.967C410.516 525.813 410.516 525.813 411.495 525.655C412.175 525.428 412.856 525.201 413.557 524.967C413.887 523.977 414.217 522.987 414.557 521.967Z" fill="#1B4332"/>
<path d="M380.557 344.967C380.887 345.627 381.217 346.287 381.557 346.967C382.217 347.297 382.877 347.627 383.557 347.967C381.907 349.617 380.257 351.267 378.557 352.967C377.897 352.637 377.237 352.307 376.557 351.967C377.032 351.369 377.506 350.771 377.995 350.155C379.722 347.963 379.722 347.963 380.557 344.967Z" fill="#1B4332"/>
<path d="M384.557 341.967C386.537 342.462 386.537 342.462 388.557 342.967C386.907 344.617 385.257 346.267 383.557 347.967C383.887 345.987 384.217 344.007 384.557 341.967Z" fill="#1B4332"/>
<path d="M507.557 335.967C508.877 336.957 510.197 337.947 511.557 338.967C511.227 339.957 510.897 340.947 510.557 341.967C508.907 340.317 507.257 338.667 505.557 336.967C506.217 336.637 506.877 336.307 507.557 335.967Z" fill="#1B4332"/>
</svg>
