<svg xmlns="http://www.w3.org/2000/svg" xmlns:xlink="http://www.w3.org/1999/xlink" version="1.1" x="0px" y="0px" viewBox="0 0 1000 1250" style="enable-background:new 0 0 1000 1000;" xml:space="preserve"><style type="text/css">
	.st0{stroke:#000000;stroke-miterlimit:10;}
	.st1{fill:none;stroke:#000000;stroke-width:2;stroke-linecap:round;stroke-linejoin:round;stroke-miterlimit:10;}
</style><g><g><path class="st0" d="M500,691.3c-120.3,0-218.3-97.9-218.3-218.3S379.7,254.8,500,254.8S718.3,352.7,718.3,473    S620.3,691.3,500,691.3z M500,270.4c-111.8,0-202.7,90.9-202.7,202.7S388.2,675.7,500,675.7S702.7,584.8,702.7,473    S611.8,270.4,500,270.4z"/></g><g><path class="st0" d="M500,628.9c-86,0-155.9-69.9-155.9-155.9S414,317.2,500,317.2S655.9,387.1,655.9,473S586,628.9,500,628.9z     M500,332.7c-77.4,0-140.3,62.9-140.3,140.3S422.6,613.4,500,613.4S640.3,550.4,640.3,473S577.4,332.7,500,332.7z"/></g><g><path class="st0" d="M152.2,412.6c-27.4,0-49.7-22.3-49.7-49.7V245c0-4.3,3.5-7.8,7.8-7.8s7.8,3.5,7.8,7.8v117.9    c0,18.8,15.3,34.1,34.1,34.1s34.1-15.3,34.1-34.1V245c0-4.3,3.5-7.8,7.8-7.8c4.3,0,7.8,3.5,7.8,7.8v117.9    C201.8,390.3,179.6,412.6,152.2,412.6z"/></g><g><path class="st0" d="M152,763.4c-1.6,0-3.2-0.1-4.7-0.2l0,0c-25.1-2.4-44.8-24.9-44.8-51.3V590.3c0-29.3,11.4-56.9,32.2-77.7    l12-12c2.9-2.9,8.1-2.9,11,0l12,12c20.7,20.7,32.2,48.3,32.2,77.7v123.4c0,14-5.9,27.4-16.3,36.8    C176.4,758.8,164.4,763.4,152,763.4z M148.8,747.7c9.8,1,19.1-2.2,26.3-8.7c7.1-6.5,11.2-15.7,11.2-25.2V590.3    c0-25.2-9.8-48.8-27.6-66.6l-6.5-6.5l-6.5,6.5c-17.8,17.8-27.6,41.5-27.6,66.6v121.6C118.1,730.3,131.5,746,148.8,747.7    L148.8,747.7z"/></g><g><path class="st0" d="M152.2,514c-4.3,0-7.8-3.5-7.8-7.8V245c0-4.3,3.5-7.8,7.8-7.8c4.3,0,7.8,3.5,7.8,7.8v261.1    C159.9,510.5,156.5,514,152.2,514z"/></g><g><path class="st0" d="M847.7,763.4c-1.6,0-3.2-0.1-4.7-0.2l0,0c-25.1-2.4-44.8-24.9-44.8-51.3V590.3c0-29.3,11.4-56.9,32.2-77.7    l12-12c2.9-2.9,8.1-2.9,11,0l12,12c20.7,20.7,32.2,48.3,32.2,77.7v123.4c0,14-5.9,27.4-16.3,36.8    C872.1,758.8,860.1,763.4,847.7,763.4z M844.5,747.7c9.8,1,19.1-2.2,26.3-8.7c7.1-6.5,11.2-15.7,11.2-25.2V590.3    c0-25.2-9.8-48.8-27.6-66.6l-6.5-6.5l-6.5,6.5c-17.8,17.8-27.6,41.5-27.6,66.6v121.6C813.7,730.3,827.2,746,844.5,747.7    L844.5,747.7z"/></g><g><path class="st0" d="M847.8,514c-4.3,0-7.8-3.5-7.8-7.8V375.4c0-4.3,3.5-7.8,7.8-7.8c4.3,0,7.8,3.5,7.8,7.8v130.8    C855.6,510.5,852.2,514,847.8,514z"/></g><g><path class="st0" d="M847.8,383.4c-31.1,0-49.7-21.6-49.7-57.8c0-36.3,19.4-89,49.7-89c30.3,0,49.7,52.7,49.7,89    C897.5,361.8,879,383.4,847.8,383.4z M847.8,252.2c-16.3,0-34.1,38.4-34.1,73.4c0,27.6,11.8,42.2,34.1,42.2    c22.3,0,34.1-14.6,34.1-42.2C881.9,290.6,864.1,252.2,847.8,252.2z"/></g><g><path class="st0" d="M152.2,731.7c-4.3,0-7.8-3.5-7.8-7.8v-27.3c0-4.3,3.5-7.8,7.8-7.8c4.3,0,7.8,3.5,7.8,7.8v27.3    C159.9,728.2,156.5,731.7,152.2,731.7z"/></g><g><path class="st0" d="M847.8,731.7c-4.3,0-7.8-3.5-7.8-7.8v-27.3c0-4.3,3.5-7.8,7.8-7.8c4.3,0,7.8,3.5,7.8,7.8v27.3    C855.6,728.2,852.2,731.7,847.8,731.7z"/></g></g><text x="0" y="1015" fill="#000000" font-size="5px" font-weight="bold" font-family="'Helvetica Neue', Helvetica, Arial-Unicode, Arial, Sans-serif">Created by Hat-Tech</text><text x="0" y="1020" fill="#000000" font-size="5px" font-weight="bold" font-family="'Helvetica Neue', Helvetica, Arial-Unicode, Arial, Sans-serif">from the Noun Project</text></svg>